<svg width="0" height="0" class="hidden">
    <symbol  id="skype" xmlns="http://www.w3.org/2000/svg" xmlns:xlink="http://www.w3.org/1999/xlink"  xml:space="preserve" viewBox="0 0 300 300">
    <g id="XMLID_818_">
      <path id="XMLID_819_" d="M289.391,181.848c2.133-9.755,3.268-19.881,3.268-30.273c0-77.917-63.166-141.084-141.086-141.084
		c-8.226,0-16.286,0.711-24.128,2.064C114.836,4.611,99.918,0,83.916,0C38.728,0,2.097,36.635,2.097,81.816
		c0,15.104,4.109,29.24,11.246,41.385c-1.871,9.166-2.854,18.653-2.854,28.373c0,77.917,63.165,141.084,141.084,141.084
		c8.826,0,17.459-0.817,25.834-2.367c11.518,6.19,24.688,9.709,38.678,9.709c45.189,0,81.818-36.631,81.818-81.816
		C297.903,205.127,294.83,192.797,289.391,181.848z M223.932,218.998c-6.527,9.236-16.17,16.555-28.664,21.749
		c-12.373,5.143-27.205,7.751-44.088,7.751c-20.264,0-37.253-3.564-50.513-10.598c-9.479-5.121-17.296-12.056-23.229-20.613
		c-5.993-8.645-9.033-17.223-9.033-25.494c0-5.17,1.98-9.652,5.886-13.32c3.865-3.636,8.818-5.478,14.724-5.478
		c4.848,0,9.029,1.456,12.429,4.328c3.247,2.752,6.034,6.824,8.273,12.083c2.5,5.726,5.226,10.561,8.105,14.369
		c2.767,3.663,6.748,6.742,11.832,9.145c5.115,2.422,12.01,3.649,20.491,3.649c11.663,0,21.226-2.49,28.419-7.402
		c7.025-4.797,10.441-10.555,10.441-17.604c0-5.57-1.783-9.947-5.449-13.382c-3.84-3.591-8.904-6.386-15.055-8.303
		c-6.412-1.999-15.117-4.155-25.884-6.409c-14.586-3.124-26.985-6.83-36.86-11.019c-0.038-0.015-0.077-0.031-0.115-0.048
		c-10.117-4.303-18.271-10.27-24.236-17.736c-6.059-7.582-9.129-17.094-9.129-28.275c0-10.658,3.223-20.265,9.58-28.552
		c6.309-8.229,15.523-14.624,27.385-19.012c11.709-4.33,25.637-6.524,41.396-6.524c12.6,0,23.678,1.455,32.924,4.33
		c9.299,2.896,17.139,6.807,23.299,11.619c6.205,4.848,10.82,10.035,13.719,15.422c2.928,5.441,4.412,10.856,4.412,16.094
		c0,5.041-1.947,9.622-5.787,13.615c-3.863,4.016-8.738,6.055-14.49,6.055c-5.225,0-9.314-1.275-12.152-3.789
		c-2.641-2.334-5.379-5.973-8.42-11.209c-3.518-6.684-7.775-11.953-12.66-15.666c-4.74-3.606-12.666-5.437-23.555-5.437
		c-10.113,0-18.338,2.03-24.445,6.034c-5.885,3.858-8.744,8.282-8.744,13.523c0,3.215,0.92,5.901,2.813,8.213
		c2.005,2.449,4.833,4.6,8.408,6.388c3.708,1.864,7.529,3.345,11.357,4.402c3.921,1.088,10.5,2.7,19.522,4.784
		c9.506,2.041,18.359,4.289,26.418,6.695c1.619,0.483,3.219,0.972,4.771,1.468c9.395,3.007,17.514,6.716,24.135,11.022
		c6.758,4.401,12.109,10.053,15.906,16.8c3.807,6.771,5.736,15.132,5.736,24.844C233.803,199.135,230.481,209.727,223.932,218.998z"></path>
    </g>
  </symbol>
  <svg width="0" height="0" class="hidden">
    <symbol id="twitter" xmlns="http://www.w3.org/2000/svg" xmlns:xlink="http://www.w3.org/1999/xlink" xml:space="preserve" viewBox="0 0 310 310">
    <g id="XMLID_826_">
      <path id="XMLID_827_" d="M302.973,57.388c-4.87,2.16-9.877,3.983-14.993,5.463c6.057-6.85,10.675-14.91,13.494-23.73
		c0.632-1.977-0.023-4.141-1.648-5.434c-1.623-1.294-3.878-1.449-5.665-0.39c-10.865,6.444-22.587,11.075-34.878,13.783
		c-12.381-12.098-29.197-18.983-46.581-18.983c-36.695,0-66.549,29.853-66.549,66.547c0,2.89,0.183,5.764,0.545,8.598
		C101.163,99.244,58.83,76.863,29.76,41.204c-1.036-1.271-2.632-1.956-4.266-1.825c-1.635,0.128-3.104,1.05-3.93,2.467
		c-5.896,10.117-9.013,21.688-9.013,33.461c0,16.035,5.725,31.249,15.838,43.137c-3.075-1.065-6.059-2.396-8.907-3.977
		c-1.529-0.851-3.395-0.838-4.914,0.033c-1.52,0.871-2.473,2.473-2.513,4.224c-0.007,0.295-0.007,0.59-0.007,0.889
		c0,23.935,12.882,45.484,32.577,57.229c-1.692-0.169-3.383-0.414-5.063-0.735c-1.732-0.331-3.513,0.276-4.681,1.597
		c-1.17,1.32-1.557,3.16-1.018,4.84c7.29,22.76,26.059,39.501,48.749,44.605c-18.819,11.787-40.34,17.961-62.932,17.961
		c-4.714,0-9.455-0.277-14.095-0.826c-2.305-0.274-4.509,1.087-5.294,3.279c-0.785,2.193,0.047,4.638,2.008,5.895
		c29.023,18.609,62.582,28.445,97.047,28.445c67.754,0,110.139-31.95,133.764-58.753c29.46-33.421,46.356-77.658,46.356-121.367
		c0-1.826-0.028-3.67-0.084-5.508c11.623-8.757,21.63-19.355,29.773-31.536c1.237-1.85,1.103-4.295-0.33-5.998
		C307.394,57.037,305.009,56.486,302.973,57.388z"></path>
    </g>
  </symbol>
  </svg>
    <symbol  id="linkedin" xmlns="http://www.w3.org/2000/svg" xmlns:xlink="http://www.w3.org/1999/xlink"  xml:space="preserve" viewBox="0 0 310 310">
    <g id="XMLID_801_">
      <path id="XMLID_802_" d="M72.16,99.73H9.927c-2.762,0-5,2.239-5,5v199.928c0,2.762,2.238,5,5,5H72.16c2.762,0,5-2.238,5-5V104.73
		C77.16,101.969,74.922,99.73,72.16,99.73z"></path>
        <path id="XMLID_803_" d="M41.066,0.341C18.422,0.341,0,18.743,0,41.362C0,63.991,18.422,82.4,41.066,82.4
		c22.626,0,41.033-18.41,41.033-41.038C82.1,18.743,63.692,0.341,41.066,0.341z"></path>
        <path id="XMLID_804_" d="M230.454,94.761c-24.995,0-43.472,10.745-54.679,22.954V104.73c0-2.761-2.238-5-5-5h-59.599
		c-2.762,0-5,2.239-5,5v199.928c0,2.762,2.238,5,5,5h62.097c2.762,0,5-2.238,5-5v-98.918c0-33.333,9.054-46.319,32.29-46.319
		c25.306,0,27.317,20.818,27.317,48.034v97.204c0,2.762,2.238,5,5,5H305c2.762,0,5-2.238,5-5V194.995
		C310,145.43,300.549,94.761,230.454,94.761z"></path>
    </g>
  </symbol>
  <svg width="0" height="0" class="hidden">
    <symbol id="instagram" xmlns="http://www.w3.org/2000/svg" xmlns:xlink="http://www.w3.org/1999/xlink" xml:space="preserve" viewBox="0 0 551.034 551.034">
    <g id="XMLID_13_">
      <linearGradient id="XMLID_2_" gradientUnits="userSpaceOnUse" x1="275.517" y1="4.5714" x2="275.517" y2="549.7202" gradientTransform="matrix(1 0 0 -1 0 554)">
        <stop offset="0"></stop>
        <stop offset="0.3"></stop>
        <stop offset="0.6"></stop>
        <stop offset="1"></stop>
      </linearGradient>
      <path id="XMLID_17_" d="M386.878,0H164.156C73.64,0,0,73.64,0,164.156v222.722
		c0,90.516,73.64,164.156,164.156,164.156h222.722c90.516,0,164.156-73.64,164.156-164.156V164.156
		C551.033,73.64,477.393,0,386.878,0z M495.6,386.878c0,60.045-48.677,108.722-108.722,108.722H164.156
		c-60.045,0-108.722-48.677-108.722-108.722V164.156c0-60.046,48.677-108.722,108.722-108.722h222.722
		c60.045,0,108.722,48.676,108.722,108.722L495.6,386.878L495.6,386.878z"></path>
      <linearGradient id="XMLID_3_" gradientUnits="userSpaceOnUse" x1="275.517" y1="4.5714" x2="275.517" y2="549.7202" gradientTransform="matrix(1 0 0 -1 0 554)">
        <stop offset="0"></stop>
        <stop offset="0.3"></stop>
        <stop offset="0.6"></stop>
        <stop offset="1"></stop>
      </linearGradient>
      <path id="XMLID_81_" d="M275.517,133C196.933,133,133,196.933,133,275.516
		s63.933,142.517,142.517,142.517S418.034,354.1,418.034,275.516S354.101,133,275.517,133z M275.517,362.6
		c-48.095,0-87.083-38.988-87.083-87.083s38.989-87.083,87.083-87.083c48.095,0,87.083,38.988,87.083,87.083
		C362.6,323.611,323.611,362.6,275.517,362.6z"></path>
      <linearGradient id="XMLID_4_" gradientUnits="userSpaceOnUse" x1="418.306" y1="4.5714" x2="418.306" y2="549.7202" gradientTransform="matrix(1 0 0 -1 0 554)">
        <stop offset="0"></stop>
        <stop offset="0.3"></stop>
        <stop offset="0.6"></stop>
        <stop offset="1"></stop>
      </linearGradient>
      <circle id="XMLID_83_" cx="418.306" cy="134.072" r="34.149"></circle>
    </g>

  </symbol>
  </svg>
    <symbol xmlns="http://www.w3.org/2000/svg" viewBox="0 0 48 48" id="telegram">
        <path d="M41.4193 7.30899C41.4193 7.30899 45.3046 5.79399 44.9808 9.47328C44.8729 10.9883 43.9016 16.2908 43.1461 22.0262L40.5559 39.0159C40.5559 39.0159 40.3401 41.5048 38.3974 41.9377C36.4547 42.3705 33.5408 40.4227 33.0011 39.9898C32.5694 39.6652 24.9068 34.7955 22.2086 32.4148C21.4531 31.7655 20.5897 30.4669 22.3165 28.9519L33.6487 18.1305C34.9438 16.8319 36.2389 13.8019 30.8426 17.4812L15.7331 27.7616C15.7331 27.7616 14.0063 28.8437 10.7686 27.8698L3.75342 25.7055C3.75342 25.7055 1.16321 24.0823 5.58815 22.459C16.3807 17.3729 29.6555 12.1786 41.4193 7.30899Z" ></path>
    </symbol>
  <svg width="0" height="0" class="hidden">
    <symbol id="home" xmlns="http://www.w3.org/2000/svg" xmlns:xlink="http://www.w3.org/1999/xlink" xml:space="preserve" viewBox="0 0 26.39 26.39">
    <g>
      <g id="c14_house">
        <path d="M3.588,24.297c0,0-0.024,0.59,0.553,0.59c0.718,0,6.652-0.008,6.652-0.008l0.01-5.451c0,0-0.094-0.898,0.777-0.898h2.761
			c1.031,0,0.968,0.898,0.968,0.898l-0.012,5.434c0,0,5.628,0,6.512,0c0.732,0,0.699-0.734,0.699-0.734V14.076L13.33,5.913
			l-9.742,8.164C3.588,14.077,3.588,24.297,3.588,24.297z"></path>
        <path d="M0,13.317c0,0,0.826,1.524,2.631,0l10.781-9.121l10.107,9.064c2.088,1.506,2.871,0,2.871,0L13.412,1.504L0,13.317z"></path>
        <polygon points="23.273,4.175 20.674,4.175 20.685,7.328 23.273,9.525 		"></polygon>
      </g>
      <g id="Capa_1_216_"></g>
    </g>

  </symbol>
    <symbol  id="contact" xmlns="http://www.w3.org/2000/svg" xmlns:xlink="http://www.w3.org/1999/xlink"  xml:space="preserve" viewBox="0 0 512 512">
    <g>
      <g>
        <path d="M0,72.205v367.59h512V72.205H0z M469.425,111.59L256,289.444L42.576,111.59H469.425z M472.615,400.41H39.385V160.197
			L256,340.71l216.615-180.513V400.41z"></path>
      </g>
    </g>
      <g>
      <g>
        <rect x="367.59" y="321.641" width="65.641" height="39.385"></rect>
      </g>
    </g>

  </symbol>
    <symbol id="services" xmlns="http://www.w3.org/2000/svg" xmlns:xlink="http://www.w3.org/1999/xlink" xml:space="preserve" viewBox="0 0 490 490">
    <g>
      <g>
        <g>
          <path d="M56.3,386.7H377c4.3-11.6,10.5-22.9,19-32.6H62.1c-34.2,0-61.7,30.3-61.7,67.9s27.6,68,61.7,68H396
				c-8.5-9.7-14.8-20.6-19-32.6H56.3c-5.4,0-10.1-4.3-10.1-10.1c0-5.4,4.3-10.1,10.1-10.1h316.1c-1.6-10.5-1.6-21,0-31.1H56.3
				c-5.4,0-10.1-4.3-10.1-10.1C46.2,391,50.9,386.7,56.3,386.7z"></path>
          <path d="M427.9,177.4H94c8.5,9.7,14.8,20.6,19,32.6h318c5.4,0,10.1,4.3,10.1,10.1c0,5.4-4.3,10.1-10.1,10.1H117.6
				c1.6,10.5,1.6,21,0,31.1H431c5.4,0,10.1,4.3,10.1,10.1c0,5.4-4.3,10.1-10.1,10.1H113c-4.3,11.6-10.5,22.9-19,32.6h333.9
				c34.2,0,61.7-30.3,61.7-67.9S462,177.4,427.9,177.4z"></path>
          <path d="M62.1,136.7H396c-8.5-9.7-14.8-20.6-19-32.6H61.3c-5.4,0-10.1-4.3-10.1-10.1s4.3-10.1,10.1-10.1h311
				c-1.6-10.5-1.6-21,0-31.1h-311c-5.4,0-10.1-4.3-10.1-10.1s4.3-10.1,10.1-10.1H377C381.3,21,387.5,9.7,396,0H62.1
				C28,0.8,0.4,31.1,0.4,68.7S28,136.7,62.1,136.7z"></path>
        </g>
      </g>
    </g>

  </symbol>
    <symbol  id="portfolio" xmlns="http://www.w3.org/2000/svg" xmlns:xlink="http://www.w3.org/1999/xlink"  xml:space="preserve" viewBox="0 0 295.668 295.668">
    <g>
      <g>
        <g>
          <path d="M269.038,75.741c0.183-0.714,0.29-1.459,0.29-2.231c0-4.971-4.029-9-9-9h-19.499c-4.971,0-9,4.029-9,9
				c0,0.397,0.035,0.785,0.084,1.169h-27.111V62.25c0-20.633-16.787-37.42-37.421-37.42h-39.096
				c-20.634,0-37.421,16.787-37.421,37.42v12.429h-27.11c0.05-0.384,0.084-0.772,0.084-1.169c0-4.971-4.029-9-9-9H35.34
				c-4.971,0-9,4.029-9,9c0,0.771,0.107,1.516,0.29,2.231C11.349,79.581,0,93.432,0,109.888V235.63
				c0,19.414,15.794,35.208,35.208,35.208H260.46c19.414,0,35.208-15.794,35.208-35.208V109.888
				C295.668,93.432,284.319,79.581,269.038,75.741z M108.865,62.25c0-10.708,8.712-19.42,19.421-19.42h39.096
				c10.709,0,19.421,8.712,19.421,19.42v12.429h-77.938V62.25z M277.668,235.63c0,9.488-7.72,17.208-17.208,17.208H35.208
				c-9.488,0-17.208-7.72-17.208-17.208V109.888c0-9.489,7.72-17.208,17.208-17.208H260.46c9.488,0,17.208,7.72,17.208,17.208
				V235.63z"></path>
          <path d="M236.314,129.095H59.354c-4.971,0-9,4.029-9,9c0,4.971,4.029,9,9,9h176.961c4.971,0,9-4.029,9-9
				C245.315,133.124,241.285,129.095,236.314,129.095z"></path>
          <path d="M236.314,164.645H59.354c-4.971,0-9,4.029-9,9c0,4.971,4.029,9,9,9h176.961c4.971,0,9-4.029,9-9
				C245.315,168.674,241.285,164.645,236.314,164.645z"></path>
          <path d="M236.314,200.195H59.354c-4.971,0-9,4.029-9,9s4.029,9,9,9h176.961c4.971,0,9-4.029,9-9S241.285,200.195,236.314,200.195
				z"></path>
        </g>
      </g>
    </g>

  </symbol>
    <symbol  id="resume" xmlns="http://www.w3.org/2000/svg" xmlns:xlink="http://www.w3.org/1999/xlink"  xml:space="preserve" viewBox="0 0 488.9 488.9">
    <g>
      <g>
        <g>
          <path d="M438.9,126.9L332.8,7.3c-4.2-5.2-9.4-7.3-15.6-7.3H65.5C54.1,0,44.7,9.4,44.7,20.8v447.3c0,11.4,9.4,20.8,20.8,20.8
				h357.9c11.4,0,19.8-9.4,20.8-19.8V140.5C444.1,135.3,442.1,131.1,438.9,126.9z M337,73.6l40.7,46.1H337V73.6z M402.5,448.4
				l-316.2,0V40.6h210.1v98.8c0,11.4,9.4,20.8,20.8,20.8h85.3V448.4z"></path>
          <path d="M136.2,235.1c0,11.4,9.4,20.8,20.8,20.8h174.8c11.4,0,20.8-9.4,20.8-20.8c0-11.4-9.4-20.8-20.8-20.8H157
				C145.6,214.3,136.2,223.7,136.2,235.1z"></path>
          <path d="M331.8,343.3H157c-11.4,0-20.8,9.4-20.8,20.8c0,11.4,9.4,20.8,20.8,20.8h174.8c11.4,0,20.8-9.4,20.8-20.8
				C352.6,352.7,343.2,343.3,331.8,343.3z"></path>
        </g>
      </g>
    </g>

  </symbol>
    <symbol  xmlns="http://www.w3.org/2000/svg" xmlns:xlink="http://www.w3.org/1999/xlink" viewBox="0 0 48 48" id="about">
      <title>ic_fluent_person_48_filled</title>
      <desc>Created with Sketch.</desc>
      <g id="ðŸ”-System-Icons"  stroke-width="1"  fill-rule="evenodd">
        <g id="ic_fluent_person_48_filled"  fill-rule="nonzero">
          <path d="M35.7502,28 C38.0276853,28 39.8876578,29.7909151 39.9950978,32.0427546 L40,32.2487 L40,33 C40,36.7555 38.0583,39.5669 35.0798,41.3802 C32.1509,43.1633 28.2139,44 24,44 C19.7861,44 15.8491,43.1633 12.9202,41.3802 C10.0319285,39.6218485 8.11862909,36.9249713 8.00532378,33.3388068 L8,33 L8,32.2489 C8,29.9703471 9.79294995,28.1122272 12.0440313,28.0048972 L12.2499,28 L35.7502,28 Z M24,4 C29.5228,4 34,8.47715 34,14 C34,19.5228 29.5228,24 24,24 C18.4772,24 14,19.5228 14,14 C14,8.47715 18.4772,4 24,4 Z" id="ðŸŽ¨-Color"></path>
        </g>
      </g>
    </symbol>
    <svg width="0" height="0" class="hidden">
      <symbol xmlns="http://www.w3.org/2000/svg" viewBox="0 0 16 16" id="headset">
        <path d="M8 1a5 5 0 0 0-5 5v1h1a1 1 0 0 1 1 1v3a1 1 0 0 1-1 1H3a1 1 0 0 1-1-1V6a6 6 0 1 1 12 0v6a2.5 2.5 0 0 1-2.5 2.5H9.366a1 1 0 0 1-.866.5h-1a1 1 0 1 1 0-2h1a1 1 0 0 1 .866.5H11.5A1.5 1.5 0 0 0 13 12h-1a1 1 0 0 1-1-1V8a1 1 0 0 1 1-1h1V6a5 5 0 0 0-5-5z"></path>
      </symbol>
      <symbol xmlns="http://www.w3.org/2000/svg" viewBox="0 0 16 16" id="emoji-smile">
        <path d="M8 15A7 7 0 1 1 8 1a7 7 0 0 1 0 14zm0 1A8 8 0 1 0 8 0a8 8 0 0 0 0 16z"></path>
        <path d="M4.285 9.567a.5.5 0 0 1 .683.183A3.498 3.498 0 0 0 8 11.5a3.498 3.498 0 0 0 3.032-1.75.5.5 0 1 1 .866.5A4.498 4.498 0 0 1 8 12.5a4.498 4.498 0 0 1-3.898-2.25.5.5 0 0 1 .183-.683zM7 6.5C7 7.328 6.552 8 6 8s-1-.672-1-1.5S5.448 5 6 5s1 .672 1 1.5zm4 0c0 .828-.448 1.5-1 1.5s-1-.672-1-1.5S9.448 5 10 5s1 .672 1 1.5z"></path>
      </symbol>
      <symbol xmlns="http://www.w3.org/2000/svg" viewBox="0 0 16 16" id="journal-text">
        <path d="M5 10.5a.5.5 0 0 1 .5-.5h2a.5.5 0 0 1 0 1h-2a.5.5 0 0 1-.5-.5zm0-2a.5.5 0 0 1 .5-.5h5a.5.5 0 0 1 0 1h-5a.5.5 0 0 1-.5-.5zm0-2a.5.5 0 0 1 .5-.5h5a.5.5 0 0 1 0 1h-5a.5.5 0 0 1-.5-.5zm0-2a.5.5 0 0 1 .5-.5h5a.5.5 0 0 1 0 1h-5a.5.5 0 0 1-.5-.5z"></path>
        <path d="M3 0h10a2 2 0 0 1 2 2v12a2 2 0 0 1-2 2H3a2 2 0 0 1-2-2v-1h1v1a1 1 0 0 0 1 1h10a1 1 0 0 0 1-1V2a1 1 0 0 0-1-1H3a1 1 0 0 0-1 1v1H1V2a2 2 0 0 1 2-2z"></path>
        <path d="M1 5v-.5a.5.5 0 0 1 1 0V5h.5a.5.5 0 0 1 0 1h-2a.5.5 0 0 1 0-1H1zm0 3v-.5a.5.5 0 0 1 1 0V8h.5a.5.5 0 0 1 0 1h-2a.5.5 0 0 1 0-1H1zm0 3v-.5a.5.5 0 0 1 1 0v.5h.5a.5.5 0 0 1 0 1h-2a.5.5 0 0 1 0-1H1z"></path>
      </symbol>
      <symbol xmlns="http://www.w3.org/2000/svg"  id="people">
        <path d="M15 14s1 0 1-1-1-4-5-4-5 3-5 4 1 1 1 1h8Zm-7.978-1A.261.261 0 0 1 7 12.996c.001-.264.167-1.03.76-1.72C8.312 10.629 9.282 10 11 10c1.717 0 2.687.63 3.24 1.276.593.69.758 1.457.76 1.72l-.008.002a.274.274 0 0 1-.014.002H7.022ZM11 7a2 2 0 1 0 0-4 2 2 0 0 0 0 4Zm3-2a3 3 0 1 1-6 0 3 3 0 0 1 6 0ZM6.936 9.28a5.88 5.88 0 0 0-1.23-.247A7.35 7.35 0 0 0 5 9c-4 0-5 3-5 4 0 .667.333 1 1 1h4.216A2.238 2.238 0 0 1 5 13c0-1.01.377-2.042 1.09-2.904.243-.294.526-.569.846-.816ZM4.92 10A5.493 5.493 0 0 0 4 13H1c0-.26.164-1.03.76-1.724.545-.636 1.492-1.256 3.16-1.275ZM1.5 5.5a3 3 0 1 1 6 0 3 3 0 0 1-6 0Zm3-2a2 2 0 1 0 0 4 2 2 0 0 0 0-4Z"></path>
      </symbol>
      <symbol xmlns="http://www.w3.org/2000/svg"  viewBox="0 0 16 16" id="card-checklist">
        <path d="M14.5 3a.5.5 0 0 1 .5.5v9a.5.5 0 0 1-.5.5h-13a.5.5 0 0 1-.5-.5v-9a.5.5 0 0 1 .5-.5h13zm-13-1A1.5 1.5 0 0 0 0 3.5v9A1.5 1.5 0 0 0 1.5 14h13a1.5 1.5 0 0 0 1.5-1.5v-9A1.5 1.5 0 0 0 14.5 2h-13z"></path>
        <path d="M7 5.5a.5.5 0 0 1 .5-.5h5a.5.5 0 0 1 0 1h-5a.5.5 0 0 1-.5-.5zm-1.496-.854a.5.5 0 0 1 0 .708l-1.5 1.5a.5.5 0 0 1-.708 0l-.5-.5a.5.5 0 1 1 .708-.708l.146.147 1.146-1.147a.5.5 0 0 1 .708 0zM7 9.5a.5.5 0 0 1 .5-.5h5a.5.5 0 0 1 0 1h-5a.5.5 0 0 1-.5-.5zm-1.496-.854a.5.5 0 0 1 0 .708l-1.5 1.5a.5.5 0 0 1-.708 0l-.5-.5a.5.5 0 0 1 .708-.708l.146.147 1.146-1.147a.5.5 0 0 1 .708 0z"></path>
      </symbol>
      <symbol xmlns="http://www.w3.org/2000/svg"  viewBox="0 0 16 16" id="briefcase">
        <path d="M6.5 1A1.5 1.5 0 0 0 5 2.5V3H1.5A1.5 1.5 0 0 0 0 4.5v8A1.5 1.5 0 0 0 1.5 14h13a1.5 1.5 0 0 0 1.5-1.5v-8A1.5 1.5 0 0 0 14.5 3H11v-.5A1.5 1.5 0 0 0 9.5 1h-3zm0 1h3a.5.5 0 0 1 .5.5V3H6v-.5a.5.5 0 0 1 .5-.5zm1.886 6.914L15 7.151V12.5a.5.5 0 0 1-.5.5h-13a.5.5 0 0 1-.5-.5V7.15l6.614 1.764a1.5 1.5 0 0 0 .772 0zM1.5 4h13a.5.5 0 0 1 .5.5v1.616L8.129 7.948a.5.5 0 0 1-.258 0L1 6.116V4.5a.5.5 0 0 1 .5-.5z"></path>
      </symbol>
      <symbol xmlns="http://www.w3.org/2000/svg" viewBox="0 0 16 16" id="calendar4-week">
        <path d="M3.5 0a.5.5 0 0 1 .5.5V1h8V.5a.5.5 0 0 1 1 0V1h1a2 2 0 0 1 2 2v11a2 2 0 0 1-2 2H2a2 2 0 0 1-2-2V3a2 2 0 0 1 2-2h1V.5a.5.5 0 0 1 .5-.5zM2 2a1 1 0 0 0-1 1v1h14V3a1 1 0 0 0-1-1H2zm13 3H1v9a1 1 0 0 0 1 1h12a1 1 0 0 0 1-1V5z"></path>
        <path d="M11 7.5a.5.5 0 0 1 .5-.5h1a.5.5 0 0 1 .5.5v1a.5.5 0 0 1-.5.5h-1a.5.5 0 0 1-.5-.5v-1zm-3 0a.5.5 0 0 1 .5-.5h1a.5.5 0 0 1 .5.5v1a.5.5 0 0 1-.5.5h-1a.5.5 0 0 1-.5-.5v-1zm-2 3a.5.5 0 0 1 .5-.5h1a.5.5 0 0 1 .5.5v1a.5.5 0 0 1-.5.5h-1a.5.5 0 0 1-.5-.5v-1zm-3 0a.5.5 0 0 1 .5-.5h1a.5.5 0 0 1 .5.5v1a.5.5 0 0 1-.5.5h-1a.5.5 0 0 1-.5-.5v-1z"></path>
      </symbol>
      <symbol xmlns="http://www.w3.org/2000/svg"  viewBox="0 0 16 16" id="brightness-high">
        <path d="M8 11a3 3 0 1 1 0-6 3 3 0 0 1 0 6zm0 1a4 4 0 1 0 0-8 4 4 0 0 0 0 8zM8 0a.5.5 0 0 1 .5.5v2a.5.5 0 0 1-1 0v-2A.5.5 0 0 1 8 0zm0 13a.5.5 0 0 1 .5.5v2a.5.5 0 0 1-1 0v-2A.5.5 0 0 1 8 13zm8-5a.5.5 0 0 1-.5.5h-2a.5.5 0 0 1 0-1h2a.5.5 0 0 1 .5.5zM3 8a.5.5 0 0 1-.5.5h-2a.5.5 0 0 1 0-1h2A.5.5 0 0 1 3 8zm10.657-5.657a.5.5 0 0 1 0 .707l-1.414 1.415a.5.5 0 1 1-.707-.708l1.414-1.414a.5.5 0 0 1 .707 0zm-9.193 9.193a.5.5 0 0 1 0 .707L3.05 13.657a.5.5 0 0 1-.707-.707l1.414-1.414a.5.5 0 0 1 .707 0zm9.193 2.121a.5.5 0 0 1-.707 0l-1.414-1.414a.5.5 0 0 1 .707-.707l1.414 1.414a.5.5 0 0 1 0 .707zM4.464 4.465a.5.5 0 0 1-.707 0L2.343 3.05a.5.5 0 1 1 .707-.707l1.414 1.414a.5.5 0 0 1 0 .708z"></path>
      </symbol>
      <symbol xmlns="http://www.w3.org/2000/svg" viewBox="0 0 16 16" id="binoculars">
        <path d="M3 2.5A1.5 1.5 0 0 1 4.5 1h1A1.5 1.5 0 0 1 7 2.5V5h2V2.5A1.5 1.5 0 0 1 10.5 1h1A1.5 1.5 0 0 1 13 2.5v2.382a.5.5 0 0 0 .276.447l.895.447A1.5 1.5 0 0 1 15 7.118V14.5a1.5 1.5 0 0 1-1.5 1.5h-3A1.5 1.5 0 0 1 9 14.5v-3a.5.5 0 0 1 .146-.354l.854-.853V9.5a.5.5 0 0 0-.5-.5h-3a.5.5 0 0 0-.5.5v.793l.854.853A.5.5 0 0 1 7 11.5v3A1.5 1.5 0 0 1 5.5 16h-3A1.5 1.5 0 0 1 1 14.5V7.118a1.5 1.5 0 0 1 .83-1.342l.894-.447A.5.5 0 0 0 3 4.882V2.5zM4.5 2a.5.5 0 0 0-.5.5V3h2v-.5a.5.5 0 0 0-.5-.5h-1zM6 4H4v.882a1.5 1.5 0 0 1-.83 1.342l-.894.447A.5.5 0 0 0 2 7.118V13h4v-1.293l-.854-.853A.5.5 0 0 1 5 10.5v-1A1.5 1.5 0 0 1 6.5 8h3A1.5 1.5 0 0 1 11 9.5v1a.5.5 0 0 1-.146.354l-.854.853V13h4V7.118a.5.5 0 0 0-.276-.447l-.895-.447A1.5 1.5 0 0 1 12 4.882V4h-2v1.5a.5.5 0 0 1-.5.5h-3a.5.5 0 0 1-.5-.5V4zm4-1h2v-.5a.5.5 0 0 0-.5-.5h-1a.5.5 0 0 0-.5.5V3zm4 11h-4v.5a.5.5 0 0 0 .5.5h3a.5.5 0 0 0 .5-.5V14zm-8 0H2v.5a.5.5 0 0 0 .5.5h3a.5.5 0 0 0 .5-.5V14z"></path>
      </symbol>
      <symbol xmlns="http://www.w3.org/2000/svg" viewBox="0 0 16 16" id="bar-chart">
        <path d="M4 11H2v3h2v-3zm5-4H7v7h2V7zm5-5v12h-2V2h2zm-2-1a1 1 0 0 0-1 1v12a1 1 0 0 0 1 1h2a1 1 0 0 0 1-1V2a1 1 0 0 0-1-1h-2zM6 7a1 1 0 0 1 1-1h2a1 1 0 0 1 1 1v7a1 1 0 0 1-1 1H7a1 1 0 0 1-1-1V7zm-5 4a1 1 0 0 1 1-1h2a1 1 0 0 1 1 1v3a1 1 0 0 1-1 1H2a1 1 0 0 1-1-1v-3z"></path>
      </symbol>
      <symbol xmlns="http://www.w3.org/2000/svg" viewBox="0 0 16 16" id="geo">
        <path d="M12.166 8.94c-.524 1.062-1.234 2.12-1.96 3.07A31.493 31.493 0 0 1 8 14.58a31.481 31.481 0 0 1-2.206-2.57c-.726-.95-1.436-2.008-1.96-3.07C3.304 7.867 3 6.862 3 6a5 5 0 0 1 10 0c0 .862-.305 1.867-.834 2.94zM8 16s6-5.686 6-10A6 6 0 0 0 2 6c0 4.314 6 10 6 10z"></path>
        <path d="M8 8a2 2 0 1 1 0-4 2 2 0 0 1 0 4zm0 1a3 3 0 1 0 0-6 3 3 0 0 0 0 6z"></path>
      </symbol>
      <symbol xmlns="http://www.w3.org/2000/svg" viewBox="0 0 16 16" id="phone">
        <path d="M11 1a1 1 0 0 1 1 1v12a1 1 0 0 1-1 1H5a1 1 0 0 1-1-1V2a1 1 0 0 1 1-1h6zM5 0a2 2 0 0 0-2 2v12a2 2 0 0 0 2 2h6a2 2 0 0 0 2-2V2a2 2 0 0 0-2-2H5z"></path>
        <path d="M8 14a1 1 0 1 0 0-2 1 1 0 0 0 0 2z"></path>
      </symbol>
      <symbol xmlns="http://www.w3.org/2000/svg" viewBox="0 0 16 16" id="mail">
        <path d="M0 4a2 2 0 0 1 2-2h12a2 2 0 0 1 2 2v8a2 2 0 0 1-2 2H2a2 2 0 0 1-2-2V4Zm2-1a1 1 0 0 0-1 1v.217l7 4.2 7-4.2V4a1 1 0 0 0-1-1H2Zm13 2.383-4.708 2.825L15 11.105V5.383Zm-.034 6.876-5.64-3.471L8 9.583l-1.326-.795-5.64 3.47A1 1 0 0 0 2 13h12a1 1 0 0 0 .966-.741ZM1 11.105l4.708-2.897L1 5.383v5.722Z"></path>
      </symbol>
    </svg>
  </svg>
</svg>